# xmcd CD database file
#
# Track frame offsets:
#	150
#	17878
#	40353
#	54282
#	70739
#	86713
#	108345
#	114323
#	130874
#	149863
#	164834
#	181424
#	205034
#	224006
#
# Disc length: 3299 seconds
#
# Revision: 0
# Processed by: cddbd v1.5.2PL0 Copyright (c) Steve Scherf et al.
# Submitted via: CDex 1.70beta2
#
DISCID=d60ce10e
DTITLE=Szalóki Ági - A vágy muzsikál
DYEAR=2008
DGENRE=Jazz
TTITLE0=01 Miért szeretlek
TTITLE1=02 Mindig az a perc
TTITLE2=03 Száz panasz ég a dalomban
TTITLE3=04 Szomjas a szám
TTITLE4=05 Ma éjjel
TTITLE5=06 Hamvadó cigarettavég
TTITLE6=07 Holnap, ki tudja, holnap (szóló)
TTITLE7=08 Holnap, ki tudja, holnap
TTITLE8=09 A szívemben titokban
TTITLE9=10 Lement a nap
TTITLE10=11 A két szemed
TTITLE11=12 Ne kérdezd, ki voltam
TTITLE12=13 Nincs kegyelem
TTITLE13=14 Egyszer csak mindennek végel lesz majd
EXTD=YEAR: 2008
EXTT0=
EXTT1=
EXTT2=
EXTT3=
EXTT4=
EXTT5=
EXTT6=
EXTT7=
EXTT8=
EXTT9=
EXTT10=
EXTT11=
EXTT12=
EXTT13=
PLAYORDER=
